<!-- Generated by IcoMoon.io -->
<svg version="1.1" xmlns="http://www.w3.org/2000/svg" width="24" height="24" viewBox="0 0 24 24">
<title>ai-key</title>
<path d="M16 14c-3.313 0-6-2.687-6-6s2.687-6 6-6c3.313 0 6 2.687 6 6s-2.687 6-6 6v0zM11.5 15.991h-2.5v2h-2v2h-2v2.509l-0.5 0.491h-3.5v-3.491l7.875-7.875c0.144 0.282 0.299 0.558 0.474 0.818l-7.349 7.35 0.002 1.412 7.964-7.964c0.672 0.772 1.488 1.41 2.409 1.879l-0.875 0.871zM16 0c-4.418 0-8 3.582-8 8 0 0.9 0.155 1.763 0.43 2.57l-8.43 8.43v4.991h5l0.979-1h0.021v-2h2v-2h2v-2h1.861l1.445-1.471c0.843 0.303 1.747 0.478 2.693 0.478 4.418 0 8-3.581 8-7.999s-3.581-7.999-7.999-7.999v0z"></path>
<path d="M17.5 8c-0.828 0-1.5-0.672-1.5-1.5s0.672-1.5 1.5-1.5c0.828 0 1.5 0.672 1.5 1.5s-0.672 1.5-1.5 1.5zM17.5 4c-1.381 0-2.5 1.119-2.5 2.5s1.119 2.5 2.5 2.5c1.381 0 2.5-1.119 2.5-2.5s-1.119-2.5-2.5-2.5z"></path>
</svg>
