<!-- Generated by IcoMoon.io -->
<svg version="1.1" xmlns="http://www.w3.org/2000/svg" width="18" height="24" viewBox="0 0 18 24">
<title>ai-lock-alt</title>
<path d="M2 22v-12h14v12h-14zM12 8h-6v-2c0-1.656 1.344-3 3-3s3 1.344 3 3v2zM4 6c0-2.762 2.238-5 5-5s5 2.238 5 5v2h-1v-2c0-2.209-1.791-4-4-4s-4 1.791-4 4v2h-1v-2zM17 8h-2v-2c0-3.313-2.687-6-6-6s-6 2.687-6 6v2h-2c-0.553 0-1 0.447-1 1v14c0 0.553 0.447 1 1 1h16c0.553 0 1-0.447 1-1v-14c0-0.553-0.447-1-1-1v0z"></path>
<path d="M9 15c0.553 0 1 0.447 1 1s-0.447 1-1 1c-0.553 0-1-0.447-1-1s0.447-1 1-1zM9 18c1.104 0 2-0.896 2-2s-0.896-2-2-2c-1.104 0-2 0.896-2 2s0.896 2 2 2z"></path>
</svg>
