<!-- Generated by IcoMoon.io -->
<svg version="1.1" xmlns="http://www.w3.org/2000/svg" width="24" height="24" viewBox="0 0 24 24">
<title>ai-robot</title>
<path d="M23 11h-1v-6.358c0-0.553-0.447-0.642-1-0.642h-7.618l2.939-3.119c0.194-0.195 0.265-0.41-0.058-0.732-0.311-0.311-0.568 0.001-0.764 0.194l-3.523 3.657-3.509-3.688c-0.195-0.193-0.554-0.514-0.839-0.229s-0.221 0.615-0.026 0.81l2.972 3.106h-7.574c-0.553 0-1 0.089-1 0.642v6.359h-1c-0.553 0-1 0.089-1 0.642v4c0 0.553 0.447 1.358 1 1.358h1v5.642c0 0.553 0.447 1.358 1 1.358h18c0.553 0 1-0.806 1-1.358v-5.642h1c0.553 0 1-0.806 1-1.358v-4c0-0.553-0.447-0.642-1-0.642v0zM1 16v-4h2v4h-2zM20 22h-16v-16h16v16zM23 16h-2v-4h2v4z"></path>
<path d="M16 8.642c-1.104 0-2 0.896-2 2s0.896 2 2 2c1.104 0 2-0.896 2-2s-0.896-2-2-2v0zM16 11.642c-0.553 0-1-0.447-1-1s0.447-1 1-1c0.553 0 1 0.447 1 1s-0.447 1-1 1v0z"></path>
<path d="M8 12.642c1.104 0 2-0.896 2-2s-0.896-2-2-2c-1.104 0-2 0.896-2 2s0.896 2 2 2v0zM8 9.642c0.553 0 1 0.447 1 1s-0.447 1-1 1c-0.553 0-1-0.447-1-1s0.447-1 1-1v0z"></path>
<path d="M17 17c0-0.553-0.447-1-1-1h-8c-0.553 0-1 0.447-1 1v2c0 0.553 0.447 1 1 1h8c0.553 0 1-0.447 1-1v-2zM8 18.642v-2h2v2h-2zM11 18.642v-2h2v2h-2zM16 18.642h-2v-2h2v2z"></path>
</svg>
